<?xml version="1.0" encoding="utf-8"?>
<?xml-stylesheet type="text/xsl" href="rss1.xsl"?>
<rss version="2.0" xmlns:atom="http://www.w3.org/2005/Atom" xmlns:content="http://purl.org/rss/1.0/modules/content/" xmlns:dc="http://purl.org/dc/elements/1.1/" xmlns:media="http://search.yahoo.com/mrss/">
<channel>
 <title>sharemania</title>
 <link>http://www.sharemania.us/</link>
 <atom:link href="http://www.gettyimg.com/" rel="self" type="application/rss+xml" />

 
                <item>
                <title><![CDATA[【YOUTUBE】WEB-RiP - Lady Gaga - The Dead Dance / 4K VP9 / E-AC-3 JOC 5.1 / DTS 5.1 / Opus 2.0]]></title>
                <link><![CDATA[https://sharemania.us/threads/lady-gaga-the-dead-dance-4k-vp9-e-ac-3-joc-5-1-dts-5-1-opus-2-0.283206/]]></link>
                <description><![CDATA[<article>
				<blockquote class="messageText SelectQuoteContainer ugc baseHtml">
					
					<div style="text-align: center"><img src="https://images2.imgbox.com/3c/ae/wDV0WFbd_o.jpg" class="bbCodeImage LbImage" alt="[​IMG]" data-url="https://images2.imgbox.com/3c/ae/wDV0WFbd_o.jpg" style=""> <br>
<b><span style="font-size: 18px"><span style="color: #ff0000">Audio remixed by me.<br>
Original Audio (Opus) added.<br>
<br>
</span></span></b>​</div><b><span style="font-size: 15px"><span style="color: #000000">


<div class="ToggleTriggerAnchor bbCodeSpoilerContainer">
	<button type="button" class="button bbCodeSpoilerButton ToggleTrigger Tooltip JsOnly" data-target="&gt; .SpoilerTarget"><span>Spoiler: <span class="SpoilerTitle">MediaInfo</span></span></button>
	<div class="SpoilerTarget bbCodeSpoilerText">Format                      : Matroska<br>
Format version              : Version 4<br>
File size                   : 417 MiB<br>
Duration                    : 4 min 46 s<br>
Overall bit rate            : 12.2 Mb/s<br>
Frame rate                  : 23.976 FPS<br>
Encoded date                : 2025-09-03 17:47:10 UTC<br>
Writing application         : mkvmerge 88.0 ('All I Know') 64-bit<br>
Writing library             : libebml v1.4.5 + libmatroska v1.7.1 / Lavf62.4.100<br>
<br>
Video<br>
ID                          : 1<br>
Format                      : VP9<br>
Format profile              : 0<br>
Codec ID                    : V_VP9<br>
Duration                    : 4 min 46 s<br>
Bit rate                    : 10.3 Mb/s<br>
Width                       : 3 840 pixels<br>
Height                      : 2 160 pixels<br>
Display aspect ratio        : 16:9<br>
Frame rate mode             : Constant<br>
Frame rate                  : 23.976 (24000/1001) FPS<br>
Color space                 : YUV<br>
Chroma subsampling          : 4:2:0 (Type 1)<br>
Bit depth                   : 8 bits<br>
Bits/(Pixel*Frame)          : 0.052<br>
Stream size                 : 354 MiB (85%)<br>
Language                    : English<br>
Default                     : Yes<br>
Forced                      : No<br>
Color range                 : Limited<br>
Color primaries             : BT.709<br>
Transfer characteristics    : BT.709<br>
Matrix coefficients         : BT.709<br>
<br>
Audio #1<br>
ID                          : 2<br>
Format                      : E-AC-3 JOC<br>
Format/Info                 : Enhanced AC-3 with Joint Object Coding<br>
Commercial name             : Dolby Digital Plus with Dolby Atmos<br>
Codec ID                    : A_EAC3<br>
Duration                    : 4 min 46 s<br>
Bit rate mode               : Constant<br>
Bit rate                    : 768 kb/s<br>
Channel(s)                  : 6 channels<br>
Channel layout              : L R C LFE Ls Rs<br>
Sampling rate               : 48.0 kHz<br>
Frame rate                  : 31.250 FPS (1536 SPF)<br>
Compression mode            : Lossy<br>
Stream size                 : 26.3 MiB (6%)<br>
Title                       : Dolby Atmos by narXerino<br>
Service kind                : Complete Main<br>
Default                     : Yes<br>
Forced                      : No<br>
Complexity index            : 16<br>
Number of dynamic objects   : 15<br>
Bed channel count           : 1 channel<br>
Bed channel configuration   : LFE<br>
Dialog Normalization        : -19 dB<br>
compr                       : -0.28 dB<br>
dmixmod                     : Lt/Rt<br>
ltrtcmixlev                 : -3.0 dB<br>
ltrtsurmixlev               : -3.0 dB<br>
lorocmixlev                 : -3.0 dB<br>
lorosurmixlev               : -3.0 dB<br>
dialnorm_Average            : -19 dB<br>
dialnorm_Minimum            : -19 dB<br>
dialnorm_Maximum            : -19 dB<br>
<br>
Audio #2<br>
ID                          : 3<br>
Format                      : DTS<br>
Format/Info                 : Digital Theater Systems<br>
Codec ID                    : A_DTS<br>
Duration                    : 4 min 46 s<br>
Bit rate mode               : Constant<br>
Bit rate                    : 960 kb/s<br>
Channel(s)                  : 6 channels<br>
Channel layout              : C L R Ls Rs LFE<br>
Sampling rate               : 48.0 kHz<br>
Frame rate                  : 93.750 FPS (512 SPF)<br>
Bit depth                   : 16 bits<br>
Compression mode            : Lossy<br>
Stream size                 : 32.8 MiB (8%)<br>
Title                       : DTS 5.1<br>
Default                     : Yes<br>
Forced                      : No<br>
<br>
Audio #3<br>
ID                          : 4<br>
Format                      : Opus<br>
Codec ID                    : A_OPUS<br>
Duration                    : 4 min 46 s<br>
Bit rate                    : 127 kb/s<br>
Channel(s)                  : 2 channels<br>
Channel layout              : L R<br>
Sampling rate               : 48.0 kHz<br>
Frame rate                  : 50.001 FPS (960 SPF)<br>
Bit depth                   : 32 bits<br>
Compression mode            : Lossy<br>
Delay relative to video     : 7 ms<br>
Stream size                 : 4.34 MiB (1%)<br>
Title                       : Original Audio 2.0<br>
Language                    : English<br>
Default                     : Yes<br>
Forced                      : No</div>
</div></span></span></b><span style="color: #000000"><br>
<br>
<br>
<div style="text-align: center"><span style="font-size: 15px"><b>Download (Google Drive)</b><br>
<b>



<div class="bbCodeBlock bbCodeVfcHH HiddenContent">
	<div class="attribution type">Hidden Content:</div>
	<blockquote>You must reply before you can see the hidden data contained here.</blockquote>
</div></b></span>​</div></span>
					<div class="messageTextEndMarker">&nbsp;</div>
				</blockquote>
			</article>]]></description>
                <author><![CDATA[narxerino]]></author>
                </item>

                </channel></rss>